<svg xmlns="http://www.w3.org/2000/svg" fill="none" height="100" width="99" viewBox="104 99 80 90">
<g filter="url(#filter0_d_395_1808)">
<path fill="#462B13" d="M180 141.214C180 149.198 177.654 157.002 173.259 163.64C168.864 170.278 162.616 175.452 155.307 178.507C147.998 181.562 139.956 182.362 132.196 180.804C124.437 179.247 117.31 175.402 111.716 169.757C106.122 164.112 102.312 156.919 100.769 149.089C99.2252 141.259 100.017 133.143 103.045 125.767C106.072 118.391 111.199 112.087 117.777 107.651C124.355 103.216 132.089 100.849 140 100.849C145.253 100.849 150.454 101.893 155.307 103.921C160.16 105.95 164.57 108.923 168.284 112.671C171.999 116.42 174.945 120.87 176.955 125.767C178.965 130.664 180 135.913 180 141.214Z"></path>
<path fill="#F8AD79" d="M135.565 124.84C132.337 125.932 129.531 128.02 127.542 130.809C125.554 133.598 124.483 136.946 124.482 140.382C124.482 149.469 131.776 156.829 140.78 156.829C147.951 156.829 154.022 152.141 156.181 145.645C154.552 146.18 152.8 146.55 150.966 146.55C141.962 146.55 134.668 139.19 134.668 130.103C134.668 128.253 134.994 126.485 135.565 124.84Z"></path>
</g>
</svg>
