<svg xmlns="http://www.w3.org/2000/svg" fill="none" height="105" width="100" viewBox="100 100 80 80">
<g filter="url(#filter0_d_395_1804)">
<path fill="#462B13" d="M180 141.225C180 149.209 177.654 157.013 173.259 163.651C168.864 170.289 162.616 175.463 155.307 178.518C147.998 181.573 139.956 182.373 132.196 180.815C124.437 179.258 117.31 175.413 111.716 169.768C106.122 164.123 102.312 156.93 100.769 149.1C99.2252 141.27 100.017 133.154 103.045 125.778C106.072 118.402 111.199 112.098 117.777 107.662C124.355 103.227 132.089 100.86 140 100.86C145.253 100.86 150.454 101.904 155.307 103.932C160.16 105.961 164.57 108.934 168.284 112.682C171.999 116.431 174.945 120.881 176.955 125.778C178.965 130.675 180 135.924 180 141.225Z"></path>
<path fill="#F8AD79" d="M154.995 126.119C154.457 131.581 152.33 143.026 143.917 148.124C142.348 149.182 140.577 149.893 138.718 150.21C136.858 150.527 134.954 150.443 133.129 149.964C132.272 149.675 131.34 149.707 130.504 150.054C129.668 150.402 128.982 151.04 128.573 151.855C127.749 153.546 127.145 155.337 126.776 157.184C126.72 157.552 126.523 157.882 126.227 158.104C125.931 158.325 125.561 158.419 125.197 158.366C124.833 158.313 124.504 158.117 124.282 157.82C124.06 157.524 123.963 157.15 124.012 156.782C124.089 156.242 125.979 144.108 139.361 136.243C134.22 136.849 129.459 139.277 125.921 143.097C125.227 141.041 125.22 138.813 125.9 136.753C128.153 129.93 134.908 129.938 143.917 129.938C145.719 129.869 147.488 129.43 149.116 128.647C150.744 127.863 152.198 126.752 153.387 125.382C153.519 125.237 153.694 125.137 153.886 125.098C154.077 125.059 154.276 125.081 154.454 125.163C154.633 125.245 154.781 125.381 154.878 125.553C154.975 125.725 155.016 125.923 154.995 126.119Z"></path>
</g>
</svg>
