<svg xmlns="http://www.w3.org/2000/svg" fill="none" height="100" width="99" viewBox="104 99 80 90">
<g filter="url(#filter0_d_395_1812)">
<path fill="#462B13" d="M185 142.888C185 151.371 182.507 159.663 177.837 166.716C173.167 173.769 166.53 179.266 158.764 182.512C150.998 185.758 142.453 186.608 134.209 184.953C125.964 183.298 118.392 179.213 112.448 173.215C106.504 167.217 102.457 159.575 100.817 151.256C99.1768 142.936 100.018 134.313 103.235 126.476C106.452 118.639 111.899 111.941 118.888 107.228C125.877 102.515 134.094 100 142.5 100C148.081 100 153.608 101.109 158.764 103.265C163.92 105.42 168.606 108.579 172.552 112.562C176.499 116.544 179.629 121.272 181.765 126.476C183.901 131.679 185 137.256 185 142.888Z"></path>
<path stroke-width="0.3" stroke="#F8AD79" fill="#F8AD79" d="M158.668 129.419L158.667 129.418C156.614 127.36 153.902 126.112 151.02 125.901C148.175 125.692 145.35 126.508 143.042 128.2C140.607 126.401 137.594 125.588 134.596 125.924C131.56 126.265 128.765 127.758 126.773 130.102C124.781 132.447 123.74 135.468 123.859 138.559C123.979 141.649 125.249 144.579 127.416 146.758C127.416 146.758 127.416 146.758 127.416 146.759L138.826 158.414L138.827 158.415C139.925 159.526 141.413 160.15 142.966 160.15C144.518 160.15 146.006 159.526 147.104 158.415L147.105 158.414L158.514 146.759C158.515 146.759 158.515 146.759 158.515 146.759C159.653 145.633 160.559 144.29 161.183 142.808C161.807 141.326 162.135 139.733 162.15 138.122C162.164 136.511 161.864 134.912 161.266 133.419C160.669 131.926 159.786 130.566 158.668 129.419ZM128.179 138.117C128.179 135.996 128.999 133.959 130.463 132.442C131.955 130.951 133.966 130.115 136.062 130.115C138.157 130.115 140.169 130.951 141.661 132.443C141.851 132.637 142.078 132.792 142.328 132.897C142.578 133.003 142.847 133.057 143.118 133.057C143.389 133.057 143.657 133.003 143.907 132.897C144.157 132.792 144.384 132.637 144.575 132.443C146.067 130.951 148.078 130.115 150.174 130.115C152.269 130.115 154.281 130.951 155.772 132.442C157.248 133.961 158.075 136.006 158.075 138.137C158.075 140.141 157.343 142.069 156.029 143.554V143.532L155.772 143.792L144.361 155.353L144.361 155.353C144.198 155.519 144.004 155.651 143.791 155.742C143.577 155.832 143.349 155.878 143.118 155.878C142.887 155.878 142.658 155.832 142.445 155.742C142.231 155.651 142.037 155.519 141.875 155.353L141.874 155.353L130.464 143.793C130.464 143.793 130.464 143.793 130.463 143.793C128.999 142.276 128.179 140.239 128.179 138.117ZM146.845 140.935H145.093V139.158C145.093 138.608 144.878 138.08 144.493 137.69C144.109 137.3 143.586 137.081 143.042 137.081C142.497 137.081 141.975 137.3 141.59 137.69C141.205 138.08 140.99 138.608 140.99 139.158V140.935H139.238C138.693 140.935 138.171 141.154 137.786 141.543C137.402 141.933 137.186 142.461 137.186 143.011C137.186 143.561 137.402 144.089 137.786 144.479C138.171 144.869 138.693 145.088 139.238 145.088H140.99V146.865C140.99 147.415 141.205 147.943 141.59 148.333C141.975 148.722 142.497 148.941 143.042 148.941C143.586 148.941 144.109 148.722 144.493 148.333C144.878 147.943 145.093 147.415 145.093 146.865V145.088H146.845C147.39 145.088 147.912 144.869 148.297 144.479C148.681 144.089 148.897 143.561 148.897 143.011C148.897 142.461 148.681 141.933 148.297 141.543C147.912 141.154 147.39 140.935 146.845 140.935Z"></path>
</g>
</svg>
