<svg xmlns="http://www.w3.org/2000/svg" fill="none" height="100" width="99" viewBox="104 99 80 90">
<g filter="url(#filter0_d_395_1816)">
<path fill="#462B13" d="M185 143.38C185 151.863 182.507 160.155 177.837 167.208C173.167 174.261 166.53 179.758 158.764 183.004C150.998 186.25 142.453 187.1 134.209 185.445C125.964 183.79 118.392 179.705 112.448 173.707C106.504 167.709 102.457 160.067 100.817 151.748C99.1768 143.428 100.018 134.805 103.235 126.968C106.452 119.131 111.899 112.433 118.888 107.72C125.877 103.007 134.094 100.492 142.5 100.492C148.081 100.492 153.608 101.601 158.764 103.757C163.92 105.912 168.606 109.071 172.552 113.054C176.499 117.036 179.629 121.764 181.765 126.968C183.901 132.171 185 137.748 185 143.38Z"></path>
<path fill="#F8AD79" d="M142.499 127C141.457 126.999 140.424 127.204 139.461 127.602C138.497 128.001 137.622 128.585 136.885 129.322C136.148 130.059 135.563 130.935 135.165 131.898C134.767 132.861 134.563 133.893 134.564 134.936C134.563 135.978 134.768 137.01 135.166 137.972C135.565 138.935 136.149 139.81 136.886 140.547C137.623 141.283 138.499 141.868 139.462 142.266C140.425 142.664 141.457 142.868 142.499 142.867C144.939 142.87 147.278 143.84 149.003 145.565C150.729 147.29 151.699 149.628 151.702 152.067C151.701 153.32 151.444 154.559 150.945 155.708C150.447 156.857 149.718 157.892 148.804 158.749C154.791 156.275 159 150.389 159 143.504C159 134.387 151.62 127 142.499 127ZM142.499 132.397C143.173 132.397 143.818 132.664 144.294 133.14C144.77 133.616 145.038 134.261 145.038 134.934C145.038 135.607 144.77 136.253 144.294 136.729C143.818 137.205 143.173 137.472 142.499 137.472C141.826 137.472 141.18 137.205 140.704 136.729C140.228 136.253 139.961 135.607 139.961 134.934C139.961 134.261 140.228 133.616 140.704 133.14C141.18 132.664 141.826 132.397 142.499 132.397Z"></path>
<path fill="#F8AD79" d="M136.194 128.256C130.209 130.733 126 136.622 126 143.504C126 152.623 133.38 160 142.501 160C143.543 160.001 144.576 159.797 145.539 159.399C146.502 159.001 147.378 158.416 148.115 157.679C148.852 156.942 149.437 156.067 149.835 155.104C150.233 154.141 150.437 153.109 150.436 152.067C150.437 151.025 150.233 149.993 149.834 149.03C149.436 148.067 148.851 147.192 148.114 146.455C147.377 145.718 146.502 145.133 145.539 144.735C144.575 144.336 143.543 144.132 142.501 144.133C140.061 144.131 137.722 143.161 135.996 141.437C134.271 139.712 133.301 137.373 133.3 134.934C133.3 132.304 134.417 129.935 136.194 128.256ZM142.501 149.527C143.174 149.527 143.82 149.794 144.296 150.27C144.772 150.746 145.039 151.391 145.039 152.064C145.039 152.737 144.772 153.383 144.296 153.859C143.82 154.335 143.174 154.602 142.501 154.602C141.827 154.602 141.182 154.335 140.706 153.859C140.23 153.383 139.962 152.737 139.962 152.064C139.962 151.391 140.23 150.746 140.706 150.27C141.182 149.794 141.827 149.527 142.501 149.527Z"></path>
</g>
</svg>
